<svg xmlns="http://www.w3.org/2000/svg" width="44" height="48" viewBox="0 0 44 48" fill="none">
<path d="M4.49525 33.9018C3.69083 33.9018 3.02838 33.2038 3.02838 32.3563V13.6604H32.697V22.5846C32.7916 22.5846 32.8863 22.5846 32.9336 22.5846C33.88 22.5846 34.779 22.6843 35.6307 22.8837V8.57517C35.6307 5.98268 33.6434 3.88874 31.1828 3.88874H27.9652V1.39596C27.9652 0.648123 27.3973 0 26.6402 0H23.3753C22.6655 0 22.0504 0.598267 22.0504 1.39596V3.88874H13.5804V1.39596C13.5804 0.648123 13.0126 0 12.2555 0H8.99049C8.28072 0 7.66558 0.598267 7.66558 1.39596V3.88874H4.44793C1.98737 3.88874 0 5.98268 0 8.57517V32.3563C0 34.9488 1.98737 37.0427 4.44793 37.0427H19.6371C19.6371 36.8932 19.6371 36.7436 19.6371 36.5442C19.6371 35.6468 19.7318 34.7494 19.8737 33.9018H4.49525Z" fill="#FF7068"/>
<path d="M24.2745 17.4993C23.7066 17.4993 23.2808 17.948 23.2808 18.5463V21.3881C23.2808 21.9863 23.7066 22.4351 24.2745 22.4351H28.0127C28.5805 22.4351 29.0063 21.9863 29.0063 21.3881V18.5463C29.0063 17.948 28.5805 17.4993 28.0127 17.4993H24.2745Z" fill="#FF7068"/>
<path d="M19.7316 17.4993H15.9935C15.4256 17.4993 14.9998 17.948 14.9998 18.5463V21.3881C14.9998 21.9863 15.4256 22.4351 15.9935 22.4351H19.7316C20.2995 22.4351 20.7253 21.9863 20.7253 21.3881V18.5463C20.7253 17.948 20.2995 17.4993 19.7316 17.4993Z" fill="#FF7068"/>
<path d="M19.7316 25.177H15.9935C15.4256 25.177 14.9998 25.6257 14.9998 26.2239V29.0656C14.9998 29.6639 15.4256 30.1125 15.9935 30.1125H19.7316C20.2995 30.1125 20.7253 29.6639 20.7253 29.0656V26.2239C20.7253 25.6257 20.2995 25.177 19.7316 25.177Z" fill="#FF7068"/>
<path d="M12.4922 18.5463C12.4922 17.948 12.0663 17.4993 11.4985 17.4993H7.7604C7.19258 17.4993 6.76672 17.948 6.76672 18.5463V21.3881C6.76672 21.9863 7.19258 22.4351 7.7604 22.4351H11.4985C12.0663 22.4351 12.4922 21.9863 12.4922 21.3881V18.5463Z" fill="#FF7068"/>
<path d="M11.4985 25.177H7.7604C7.19258 25.177 6.76672 25.6257 6.76672 26.2239V29.0656C6.76672 29.6639 7.19258 30.1125 7.7604 30.1125H11.4985C12.0663 30.1125 12.4922 29.6639 12.4922 29.0656V26.2239C12.4922 25.6257 12.019 25.177 11.4985 25.177Z" fill="#FF7068"/>
<path d="M32.9335 25.676C27.2553 25.676 22.6182 30.5619 22.6182 36.5447C22.6182 42.5274 27.2553 47.4133 32.9335 47.4133C38.6117 47.4133 43.2489 42.5274 43.2489 36.5447C43.2489 30.5619 38.659 25.676 32.9335 25.676ZM37.1922 38.0902H32.9809C32.1764 38.0902 31.514 37.3922 31.514 36.5447V31.2599C31.514 30.4124 32.1764 29.7144 32.9809 29.7144C33.7853 29.7144 34.4477 30.4124 34.4477 31.2599V34.9991H37.1922C37.9966 34.9991 38.659 35.6971 38.659 36.5447C38.659 37.3922 37.9966 38.0902 37.1922 38.0902Z" fill="#FF7068"/>
</svg>