<svg xmlns="http://www.w3.org/2000/svg" width="28" height="51" viewBox="0 0 28 51" fill="none">
<path d="M22.2833 0H23.6341C26.0386 0 27.9878 1.9492 27.9878 4.35366V46.6463C27.9878 49.0508 26.0386 51 23.6341 51H4.35366C1.9492 51 0 49.0508 0 46.6463V4.35366C0 1.9492 1.9492 0 4.35366 0H5.35947L5.82229 1.49778C6.2899 3.01198 8.20048 4.23947 10.0897 4.23947H17.5531C19.4423 4.23947 21.3529 3.01198 21.8205 1.49778L22.2833 0ZM7.01092 1.13063L6.66168 0H20.9811L20.6319 1.13063C20.3357 2.08973 18.9261 2.99557 17.5531 2.99557H10.0897C8.71674 2.99557 7.30711 2.08973 7.01092 1.13063ZM6.84146 47.8902H22.3902C22.7337 47.8902 23.0122 47.6118 23.0122 47.2683C23.0122 46.9248 22.7337 46.6463 22.3902 46.6463H6.84146C6.49797 46.6463 6.21951 46.9248 6.21951 47.2683C6.21951 47.6118 6.49797 47.8902 6.84146 47.8902ZM20.6137 34.8293C22.2791 34.8293 23.6341 33.4743 23.6341 31.8079V19.1927C23.6341 17.5263 22.2791 16.1707 20.6137 16.1707H7.99669C6.3308 16.1707 4.97561 17.5263 4.97561 19.1927V31.8073C4.97561 33.4737 6.3308 34.8293 7.99669 34.8293H20.6137ZM9.61291 25.8146H8.73283C8.47064 25.8146 8.23464 25.658 8.13456 25.4192C8.03422 25.1791 8.08956 24.9039 8.27487 24.7204L9.62688 23.3827C9.6196 23.341 9.61291 23.3003 9.61291 23.2533V21.485C9.61291 21.0146 9.99768 20.6337 10.473 20.6337H10.4778C10.9331 20.6337 11.3008 20.9832 11.3324 21.4257C11.3324 21.6038 11.3385 21.6868 11.3506 21.6748C11.3689 21.6567 11.4541 21.5725 11.4848 21.542C11.9081 21.123 12.5431 20.4943 13.3896 19.6561C13.6339 19.4139 13.9591 19.2805 14.3049 19.2805C14.6504 19.2805 14.9764 19.4139 15.2208 19.6561L20.3349 24.7204C20.5194 24.9039 20.5753 25.1791 20.4752 25.4192C20.3749 25.658 20.1394 25.8146 19.8769 25.8146H19.1074V29.1242C19.1074 30.4366 18.02 31.5051 16.684 31.5051H16.1762C15.8201 31.5051 13.1532 31.5051 12.7949 31.5051H12.1268C10.7647 31.5051 9.61291 30.4147 9.61291 29.1242V25.8146Z" fill="#FF7068"/>
</svg>