<svg xmlns="http://www.w3.org/2000/svg" width="46" height="56" viewBox="0 0 46 56" fill="none">
<path d="M40.444 42.1022C39.2201 42.5734 37.1393 43.0446 34.875 43.5748C34.0794 44.8118 32.6106 45.8721 30.2851 46.2844C29.7955 46.3433 29.1835 46.4022 28.5715 46.4022C26.9804 46.4611 25.0832 46.2844 23.0025 46.1077C22.8801 46.1077 22.6965 46.1077 22.5741 46.0488C22.0845 45.9899 21.6561 45.6364 21.5949 45.1652C21.5337 44.5762 22.0845 44.046 22.6965 44.1049C22.8801 44.1049 23.0025 44.1049 23.1861 44.1638C25.8788 44.3994 28.3879 44.5761 29.9791 44.3405C32.9166 43.8104 33.7734 42.0432 33.5898 40.6295C33.4062 39.4514 32.5494 38.2733 31.0807 38.3911C28.9999 38.509 26.552 38.3911 24.1652 38.2144C21.4113 38.0377 18.6574 37.9788 16.6378 38.1555C14.4347 38.3911 9.90597 39.9816 5.98926 42.5734C4.0309 43.8693 1.88895 45.3419 0.603785 46.2844C-0.0693992 46.7556 -0.191796 47.6392 0.297792 48.2872L6.05046 55.4735C6.54005 56.0626 7.45802 56.1804 8.13121 55.7092L10.2732 54.1187C10.7627 53.7653 11.4359 53.6475 12.0479 53.8242C15.9034 55.0023 20.0649 55.7681 22.7577 55.9448C28.6327 56.2393 40.0157 49.5242 43.2592 47.3447C46.4415 45.1652 44.116 40.8062 40.444 42.1022Z" fill="#FF7068"/>
<path d="M12.109 20.602C12.4762 20.8965 12.5986 21.4266 12.4762 21.839L11.2522 25.1965C11.0074 25.8445 11.4358 26.5513 12.1702 26.6692L15.7809 27.3171C16.2705 27.376 16.6377 27.7883 16.6989 28.2007L17.3721 31.6761C17.4945 32.3829 18.2288 32.7953 18.902 32.5596L22.3903 31.3815C22.8799 31.2048 23.3695 31.3815 23.6755 31.735L26.0623 34.4446C26.5518 34.9747 27.4086 34.9747 27.837 34.4446L30.2238 31.735C30.5298 31.3815 31.0805 31.2637 31.5089 31.3815L34.9972 32.5596C35.6704 32.7953 36.4048 32.3829 36.5272 31.6761L37.2004 28.2007C37.2616 27.7294 37.69 27.376 38.1184 27.3171L41.7291 26.6692C42.4635 26.5513 42.8919 25.8445 42.6471 25.1965L41.4231 21.839C41.2395 21.3677 41.4231 20.8965 41.7903 20.602L44.6054 18.3047C45.1562 17.8334 45.1562 17.0088 44.6054 16.5964L41.7903 14.2991C41.4231 14.0046 41.3007 13.4745 41.4231 13.0621L42.6471 9.70457C42.8919 9.05661 42.4635 8.34976 41.7291 8.23195L38.1184 7.58399C37.6288 7.52509 37.2616 7.11276 37.2004 6.70042L36.5272 3.16613C36.4048 2.45928 35.6704 2.04694 34.9972 2.28256L31.5089 3.46066C31.0193 3.63737 30.5298 3.46066 30.2238 3.10723L27.837 0.397607C27.3474 -0.132536 26.4906 -0.132536 26.0623 0.397607L23.6755 3.10723C23.3695 3.46066 22.8187 3.57847 22.3903 3.46066L18.902 2.28256C18.2288 2.04694 17.4945 2.45928 17.3721 3.16613L16.6989 6.64152C16.6377 7.11276 16.2093 7.46618 15.7809 7.52509L12.0478 8.17304C11.3134 8.29085 10.885 8.99771 11.1298 9.64566L12.3538 13.0032C12.5374 13.4745 12.3538 13.9457 11.9866 14.2402L9.17145 16.5375C8.62067 17.0088 8.62067 17.8334 9.17145 18.2458L12.109 20.602ZM26.919 8.40866C32.0597 8.40866 36.2824 12.4142 36.2824 17.4211C36.2824 22.3691 32.1209 26.4335 26.919 26.4335C21.7172 26.4335 17.5557 22.3691 17.5557 17.4211C17.5557 12.4731 21.7172 8.40866 26.919 8.40866Z" fill="#FF7068"/>
<path d="M25.3278 21.7801C25.5726 22.0746 26.0622 22.0746 26.3682 21.7801L32.6105 15.3006C32.8553 15.006 32.8553 14.5937 32.5493 14.3581L31.0193 13.0622C30.7133 12.8266 30.2849 12.8266 30.0401 13.1211L25.8786 17.48L23.7367 15.3006C23.4919 15.006 23.0635 15.006 22.7575 15.2417L21.2275 16.5965C20.9215 16.8321 20.9215 17.2444 21.1663 17.5389L25.3278 21.7801Z" fill="#FF7068"/>
</svg>