<svg xmlns="http://www.w3.org/2000/svg" width="38" height="46" viewBox="0 0 38 46" fill="none">
  <path d="M21.0442 23.5084C22.6238 23.5083 24.1679 23.0375 25.4812 22.1554C26.7946 21.2732 27.8182 20.0194 28.4226 18.5525C29.0271 17.0857 29.1852 15.4715 28.8771 13.9143C28.5689 12.3571 27.8082 10.9267 26.6913 9.80397C25.5743 8.68127 24.1513 7.91671 22.6021 7.60697C21.0528 7.29723 19.447 7.45622 17.9877 8.06383C16.5284 8.67144 15.2811 9.70039 14.4035 11.0206C13.526 12.3407 13.0576 13.8928 13.0576 15.4806C13.06 17.6089 13.9022 19.6495 15.3995 21.1544C16.8968 22.6594 18.9268 23.506 21.0442 23.5084ZM21.0442 8.64204C22.3898 8.64207 23.7051 9.04316 24.8239 9.7946C25.9427 10.546 26.8146 11.6141 27.3295 12.8637C27.8444 14.1132 27.9792 15.4882 27.7166 16.8148C27.4541 18.1413 26.8061 19.3598 25.8547 20.3162C24.9032 21.2725 23.691 21.9238 22.3713 22.1877C21.0516 22.4515 19.6837 22.3161 18.4405 21.7985C17.1974 21.2809 16.1349 20.4044 15.3873 19.2798C14.6398 18.1552 14.2408 16.8331 14.2408 15.4806C14.2428 13.6675 14.9603 11.9292 16.2357 10.6472C17.5112 9.36518 19.2405 8.64406 21.0442 8.64204Z" fill="#FF7068"/>
  <path d="M6.55005 36.591L7.5946 28.048C7.66006 27.5256 7.89543 27.0396 8.2641 26.6656C8.63277 26.2916 9.11407 26.0505 9.63313 25.9799L15.62 25.1558L18.1041 28.3871C18.2758 28.012 18.5467 27.6915 18.8872 27.4605L16.7253 24.6483C16.9525 24.4285 17.1174 24.1519 17.2033 23.847C16.8324 23.6741 16.4733 23.4765 16.1287 23.2554L16.0764 23.4976C16.0498 23.6173 15.9875 23.7259 15.8977 23.8089C15.8078 23.8919 15.6949 23.9452 15.574 23.9617L9.47253 24.8016C8.69481 24.908 7.97387 25.2698 7.42183 25.8306C6.8698 26.3915 6.51761 27.1199 6.42005 27.9028L5.3755 36.4458C5.35734 36.6128 5.37416 36.7818 5.42488 36.9419C5.47561 37.1019 5.55911 37.2495 5.67002 37.3752C5.78094 37.5009 5.91679 37.6018 6.06886 37.6715C6.22092 37.7412 6.38582 37.7781 6.55293 37.7799H11.2826V36.5918L6.55005 36.591Z" fill="#FF7068"/>
  <path d="M36.7129 36.4459L35.6683 27.9028C35.5708 27.12 35.2186 26.3915 34.6666 25.8306C34.1145 25.2698 33.3936 24.908 32.6159 24.8016L26.5144 23.9618C26.3935 23.9452 26.2805 23.8919 26.1907 23.8089C26.1009 23.7259 26.0385 23.6172 26.012 23.4975L25.9598 23.2554C25.6151 23.4765 25.256 23.6741 24.8851 23.847C24.971 24.152 25.1359 24.4285 25.3631 24.6483L23.2012 27.4606C23.5417 27.6915 23.8126 28.012 23.9843 28.3871L26.4684 25.1558L32.4553 25.9799C32.9743 26.0505 33.4556 26.2916 33.8243 26.6656C34.193 27.0396 34.4284 27.5256 34.4938 28.048L35.5355 36.5906L30.8058 36.5908V37.7799H35.5355C35.7026 37.7783 35.8676 37.7414 36.0197 37.6718C36.1718 37.6021 36.3077 37.5012 36.4187 37.3755C36.5296 37.2498 36.6131 37.1021 36.6638 36.942C36.7145 36.7819 36.7312 36.6129 36.7129 36.4459Z" fill="#FF7068"/>
  <path d="M28.5745 34.9172H27.9826C27.8295 34.3712 27.6124 33.8455 27.3358 33.351L27.7553 32.9294C27.9516 32.7317 28.0618 32.4639 28.0618 32.1846C28.0618 31.9053 27.9516 31.6374 27.7553 31.4397L26.4646 30.1423C26.2649 29.9508 25.9996 29.844 25.7237 29.844C25.4477 29.8439 25.1824 29.9507 24.9827 30.1421L24.563 30.564C24.0711 30.2861 23.5481 30.0678 23.0051 29.9139V29.319C23.0047 29.0397 22.8942 28.7719 22.6978 28.5744C22.5013 28.377 22.2349 28.2659 21.9571 28.2655H20.1314C19.8536 28.2659 19.5872 28.377 19.3907 28.5744C19.1943 28.7719 19.0838 29.0397 19.0834 29.319V29.9139C18.5404 30.0679 18.0174 30.2861 17.5255 30.564L17.1061 30.1426C16.9065 29.9509 16.6411 29.8439 16.3651 29.8439C16.089 29.8438 15.8236 29.9507 15.6239 30.1423L14.3332 31.4397C14.1369 31.6374 14.0267 31.9053 14.0267 32.1846C14.0267 32.4639 14.1369 32.7317 14.3332 32.9294L14.7527 33.351C14.4761 33.8455 14.259 34.3712 14.1059 34.9172H13.514C13.2362 34.9175 12.9698 35.0286 12.7734 35.2261C12.5769 35.4235 12.4664 35.6912 12.466 35.9705V37.8055C12.4664 38.0848 12.5769 38.3525 12.7734 38.55C12.9698 38.7474 13.2362 38.8585 13.514 38.8588H14.1059C14.259 39.4048 14.4761 39.9305 14.7527 40.425L14.3332 40.8466C14.1369 41.0443 14.0267 41.3122 14.0267 41.5915C14.0267 41.8707 14.1369 42.1386 14.3332 42.3363L15.6239 43.6338C15.8235 43.8253 16.0889 43.9323 16.3648 43.9323C16.6408 43.9323 16.9062 43.8254 17.1058 43.6339L17.5255 43.212C18.0174 43.4899 18.5404 43.7082 19.0834 43.8621V44.4571C19.0838 44.7363 19.1943 45.0041 19.3907 45.2016C19.5872 45.399 19.8536 45.5101 20.1314 45.5105H21.9571C22.2349 45.5101 22.5013 45.399 22.6978 45.2016C22.8942 45.0041 23.0047 44.7363 23.0051 44.4571V43.8621C23.5481 43.7081 24.0711 43.4899 24.563 43.212L24.9824 43.6334C25.1819 43.8252 25.4473 43.9323 25.7234 43.9324C25.9995 43.9324 26.265 43.8255 26.4646 43.6337L27.7552 42.3363C27.9515 42.1386 28.0618 41.8707 28.0618 41.5914C28.0618 41.3121 27.9515 41.0443 27.7552 40.8466L27.3358 40.425C27.6123 39.9305 27.8294 39.4048 27.9826 38.8588H28.5745C28.8523 38.8585 29.1186 38.7474 29.3151 38.5499C29.5116 38.3525 29.6221 38.0848 29.6225 37.8055V35.9705C29.6221 35.6912 29.5116 35.4235 29.3151 35.2261C29.1187 35.0286 28.8523 34.9175 28.5745 34.9172ZM28.4393 37.6695H27.5192C27.3835 37.6695 27.2519 37.7164 27.1465 37.8024C27.0411 37.8884 26.9683 38.0081 26.9404 38.1416C26.7874 38.8716 26.5005 39.5666 26.0943 40.191C26.0201 40.3052 25.9873 40.4417 26.0013 40.5774C26.0154 40.7131 26.0754 40.8398 26.1714 40.9363L26.8231 41.5915L25.7236 42.6966L25.0717 42.0414C24.9757 41.9449 24.8496 41.8844 24.7146 41.8703C24.5796 41.8562 24.4438 41.8892 24.3301 41.9639C23.7092 42.3724 23.0178 42.6608 22.2916 42.8144C22.1588 42.8425 22.0396 42.9157 21.9541 43.0216C21.8686 43.1275 21.8219 43.2598 21.8219 43.3962V44.3212H20.2666V43.3962C20.2666 43.2598 20.2199 43.1275 20.1344 43.0216C20.0489 42.9157 19.9297 42.8425 19.7969 42.8144C19.0707 42.6609 18.3793 42.3724 17.7584 41.9639C17.6447 41.8892 17.5089 41.8562 17.3739 41.8703C17.2388 41.8844 17.1128 41.9448 17.0168 42.0414L16.3648 42.6966L15.2654 41.5915L15.9171 40.9363C16.0131 40.8398 16.0731 40.7131 16.0872 40.5774C16.1012 40.4417 16.0684 40.3053 15.9942 40.191C15.588 39.5666 15.3011 38.8716 15.1481 38.1416C15.1201 38.0081 15.0474 37.8884 14.942 37.8024C14.8366 37.7165 14.705 37.6695 14.5692 37.6695H13.6492V36.1065H14.5693C14.705 36.1065 14.8366 36.0596 14.942 35.9736C15.0474 35.8877 15.1202 35.7679 15.1482 35.6344C15.3011 34.9044 15.588 34.2094 15.9942 33.585C16.0684 33.4708 16.1012 33.3343 16.0872 33.1986C16.0732 33.0629 16.0131 32.9362 15.9171 32.8397L15.2654 32.1845L16.3649 31.0794L17.0168 31.7346C17.1129 31.831 17.2389 31.8913 17.3739 31.9055C17.5089 31.9196 17.6447 31.8866 17.7584 31.8121C18.3793 31.4036 19.0707 31.1152 19.7969 30.9617C19.9297 30.9335 20.0489 30.8603 20.1344 30.7544C20.2199 30.6485 20.2666 30.5162 20.2666 30.3798V29.4548H21.8219V30.3798C21.8219 30.5162 21.8686 30.6485 21.9541 30.7544C22.0396 30.8603 22.1588 30.9335 22.2916 30.9616C23.0178 31.1152 23.7092 31.4036 24.3301 31.8121C24.4439 31.8866 24.5796 31.9195 24.7146 31.9054C24.8496 31.8913 24.9756 31.831 25.0717 31.7346L25.7237 31.0794L26.8231 32.1845L26.1714 32.8397C26.0754 32.9362 26.0154 33.0629 26.0013 33.1986C25.9873 33.3343 26.0201 33.4708 26.0943 33.585C26.5005 34.2094 26.7874 34.9044 26.9403 35.6344C26.9683 35.7679 27.0411 35.8876 27.1465 35.9736C27.2519 36.0596 27.3835 36.1065 27.5192 36.1065H28.4393L28.4393 37.6695Z" fill="#FF7068"/>
  <path d="M21.044 32.7254C20.2249 32.7254 19.4243 32.9695 18.7433 33.4269C18.0623 33.8843 17.5315 34.5344 17.2181 35.295C16.9047 36.0557 16.8227 36.8926 16.9825 37.7001C17.1423 38.5075 17.5367 39.2492 18.1158 39.8313C18.695 40.4135 19.4329 40.8099 20.2362 40.9705C21.0395 41.1311 21.8721 41.0487 22.6288 40.7336C23.3855 40.4186 24.0322 39.8851 24.4873 39.2005C24.9423 38.516 25.1852 37.7112 25.1852 36.8879C25.1839 35.7843 24.7472 34.7263 23.9709 33.9459C23.1945 33.1655 22.1419 32.7266 21.044 32.7254ZM21.044 39.8612C20.4589 39.8612 19.887 39.6868 19.4006 39.3601C18.9142 39.0334 18.5351 38.569 18.3112 38.0257C18.0873 37.4824 18.0288 36.8846 18.1429 36.3078C18.257 35.7311 18.5388 35.2013 18.9524 34.7855C19.3661 34.3697 19.8932 34.0865 20.467 33.9718C21.0408 33.8571 21.6355 33.916 22.176 34.141C22.7165 34.366 23.1784 34.7471 23.5035 35.2361C23.8285 35.725 24.002 36.2999 24.002 36.8879C24.0011 37.6762 23.6891 38.432 23.1346 38.9894C22.58 39.5468 21.8282 39.8603 21.044 39.8612Z" fill="#FF7068"/>
</svg>