<svg xmlns="http://www.w3.org/2000/svg" width="28" height="41" viewBox="0 0 28 41" fill="none">
  <path d="M13.6337 0.363159C6.18758 0.363159 0.135263 6.54937 0.135254 14.1559C0.135254 19.255 2.86176 23.7084 6.89811 26.0972V39.434C6.89997 40.2069 7.75472 40.6561 8.37083 40.2081L13.6337 36.4231L18.9038 40.2081C19.5189 40.6469 20.3631 40.2009 20.3692 39.434V26.0972C24.4083 23.7086 27.1393 19.2556 27.1393 14.1559C27.1393 6.54936 21.0797 0.363159 13.6337 0.363159ZM13.6337 2.27056C20.0731 2.27056 25.2752 7.58003 25.2752 14.1559C25.2752 20.7319 20.0731 26.0488 13.6337 26.0488C7.1942 26.0488 1.99936 20.7319 1.99936 14.1559C1.99936 7.58003 7.1942 2.27056 13.6337 2.27056ZM10.8921 11.1302L6.65235 11.7852C5.88649 11.904 5.58823 12.8673 6.1481 13.4135L9.23917 16.4448L8.53831 20.7583C8.40697 21.5412 9.21721 22.134 9.9018 21.7557L13.6828 19.6958L17.4857 21.7018C18.1716 22.0651 18.9682 21.4679 18.8346 20.6913L18.0828 16.3871L21.132 13.313C21.6807 12.7593 21.37 11.8044 20.6059 11.694L16.3588 11.0892L14.4346 7.18326C14.1149 6.51353 13.0678 6.51834 12.7835 7.17373C12.143 8.48517 11.5203 9.81065 10.8921 11.1299V11.1302ZM13.6173 9.75499L14.9134 12.3956C15.0506 12.6745 15.3133 12.867 15.6161 12.911L18.4723 13.313L16.4207 15.3841C16.2037 15.6038 16.1055 15.9181 16.1586 16.2252L16.6701 19.1263L14.1051 17.7716C13.8325 17.6269 13.5063 17.628 13.235 17.7753L10.6864 19.1691L11.1561 16.2643C11.2071 15.9545 11.1066 15.6393 10.8848 15.4213L8.80226 13.3762L11.6549 12.9371C11.9596 12.8892 12.2226 12.6922 12.3557 12.4086L13.6173 9.75499ZM8.76222 27.0108C10.2757 27.6124 11.9142 27.9562 13.6337 27.9562C15.3523 27.9562 16.9916 27.6137 18.5051 27.0127V37.5973L14.1707 34.4822C13.8488 34.2506 13.4185 34.2506 13.0966 34.4822L8.76222 37.5973V27.0108Z" fill="#FF7068"/>
</svg>