<svg xmlns="http://www.w3.org/2000/svg" width="45" height="45" viewBox="0 0 45 45" fill="none">
<path d="M41.0267 4.42502C38.4152 1.57501 34.9186 0 31.2121 0C28.0006 0 24.9541 1.17001 22.5076 3.34501C20.0626 1.17001 17.0161 0 13.8046 0C10.098 0 6.60002 1.57501 3.99001 4.42502C-0.0480103 8.85004 -1.08302 15.4651 1.16849 21.0001H11.193L16.7611 12.6751C17.0911 12.1801 17.6611 11.9251 18.2461 12.0151C18.8311 12.1201 19.2961 12.5401 19.4461 13.1101L23.0926 26.4301L27.2641 20.1751C27.5341 19.7551 28.0141 19.5001 28.5091 19.5001H36.0121C36.8372 19.5001 37.5121 20.1751 37.5121 21.0001C37.5121 21.8251 36.8372 22.5001 36.0121 22.5001H29.3191L23.7511 30.8251C23.4661 31.2601 23.0011 31.5001 22.5061 31.5001C22.4311 31.5001 22.3411 31.5001 22.2661 31.4851C21.6811 31.3801 21.2161 30.9601 21.0661 30.3901L17.4196 17.0701L13.248 23.3251C12.978 23.7451 12.498 24.0001 12.003 24.0001H2.9385L21.3976 44.5052C21.6826 44.8202 22.0726 45.0002 22.5076 45.0002C22.9276 45.0002 23.3326 44.8202 23.6176 44.5052L41.0252 25.4851C46.3247 19.6801 46.3247 10.23 41.0267 4.42502Z" fill="#FF7068"/>
</svg>