<svg xmlns="http://www.w3.org/2000/svg" width="24" height="24" viewBox="0 0 24 24" fill="none">
  <path d="M12.223 11.641L12 11.861L11.776 11.641C11.3597 11.23 10.7984 10.9996 10.2135 10.9996C9.62856 10.9996 9.0672 11.23 8.65097 11.641C8.44439 11.8397 8.28005 12.0781 8.1678 12.3418C8.05554 12.6056 7.99768 12.8893 7.99768 13.176C7.99768 13.4626 8.05554 13.7463 8.1678 14.0101C8.28005 14.2738 8.44439 14.5122 8.65097 14.711L12 18L15.349 14.711C15.5555 14.5122 15.7199 14.2738 15.8321 14.0101C15.9444 13.7463 16.0023 13.4626 16.0023 13.176C16.0023 12.8893 15.9444 12.6056 15.8321 12.3418C15.7199 12.0781 15.5555 11.8397 15.349 11.641C14.9326 11.23 14.371 10.9995 13.786 10.9995C13.2009 10.9995 12.6394 11.23 12.223 11.641Z" fill="#8C8C8C"/>
  <path d="M21.707 11.293L12.707 2.29296C12.6142 2.20001 12.504 2.12627 12.3827 2.07596C12.2613 2.02565 12.1313 1.99976 12 1.99976C11.8686 1.99976 11.7386 2.02565 11.6173 2.07596C11.496 2.12627 11.3858 2.20001 11.293 2.29296L2.29297 11.293C2.15316 11.4328 2.05795 11.611 2.01939 11.8049C1.98082 11.9989 2.00062 12.1999 2.07629 12.3826C2.15196 12.5653 2.2801 12.7215 2.44451 12.8314C2.60892 12.9412 2.80222 12.9999 2.99997 13H3.99997V20C3.99997 21.103 4.89697 22 5.99997 22H18C19.103 22 20 21.103 20 20V13H21C21.1977 12.9999 21.391 12.9412 21.5554 12.8314C21.7198 12.7215 21.848 12.5653 21.9236 12.3826C21.9993 12.1999 22.0191 11.9989 21.9806 11.8049C21.942 11.611 21.8468 11.4328 21.707 11.293ZM18.001 20H5.99997V10.415L12 4.41496L18 10.415V15L18.001 20Z" fill="#8C8C8C"/>
</svg>