<svg xmlns="http://www.w3.org/2000/svg" width="32" height="32" viewBox="0 0 32 32" fill="none">
  <path d="M16 4.26486C13.7725 4.26486 11.595 4.93939 9.74295 6.20315C7.89086 7.46691 6.44733 9.26313 5.59491 11.3647C4.74249 13.4662 4.51945 15.7787 4.95401 18.0097C5.38858 20.2407 6.46121 22.29 8.03629 23.8985C9.61136 25.5069 11.6181 26.6023 13.8028 27.0461C15.9875 27.4899 18.252 27.2621 20.3099 26.3916C22.3679 25.5211 24.1268 24.047 25.3643 22.1556C26.6019 20.2643 27.2624 18.0407 27.2624 15.766C27.259 12.7167 26.0713 9.79341 23.96 7.63728C21.8486 5.48116 18.9859 4.26832 16 4.26486ZM16 25.5155C14.1118 25.5155 12.2659 24.9437 10.6959 23.8724C9.12587 22.8011 7.90219 21.2784 7.17958 19.4969C6.45698 17.7155 6.26792 15.7552 6.6363 13.8639C7.00468 11.9727 7.91395 10.2355 9.24915 8.87202C10.5843 7.50853 12.2855 6.57998 14.1374 6.20379C15.9894 5.82761 17.909 6.02068 19.6535 6.7586C21.398 7.49651 22.8891 8.74613 23.9382 10.3494C24.9872 11.9527 25.5471 13.8377 25.5471 15.766C25.5443 18.3508 24.5375 20.8289 22.7477 22.6567C20.9578 24.4844 18.5312 25.5125 16 25.5155ZM20.8554 13.3204L15.4779 20.4478C15.3979 20.554 15.2951 20.6401 15.1773 20.6993C15.0595 20.7585 14.93 20.7893 14.7987 20.7893H14.797C14.6656 20.7889 14.5359 20.7578 14.4181 20.6981C14.3003 20.6385 14.1974 20.5521 14.1175 20.4454L11.1427 16.473C11.0084 16.2882 10.9507 16.0569 10.9821 15.829C11.0134 15.6012 11.1314 15.3951 11.3103 15.2553C11.4893 15.1155 11.715 15.0533 11.9385 15.0821C12.1621 15.1108 12.3656 15.2283 12.505 15.4091L14.8012 18.4751L19.4969 12.2521C19.5644 12.1578 19.6498 12.0782 19.7479 12.018C19.846 11.9579 19.9549 11.9184 20.0682 11.9019C20.1815 11.8854 20.2969 11.8922 20.4076 11.9219C20.5183 11.9517 20.622 12.0037 20.7127 12.075C20.8033 12.1463 20.8791 12.2355 20.9355 12.3372C20.9919 12.4388 21.0279 12.551 21.0412 12.6671C21.0545 12.7832 21.0449 12.9008 21.013 13.013C20.9811 13.1253 20.9275 13.2299 20.8554 13.3206V13.3204ZM30.3495 18.7515C31.1231 17.9287 32 16.9958 32 15.766C32 14.5361 31.1231 13.6033 30.3495 12.7805C29.9078 12.3802 29.5437 11.8986 29.2764 11.3608C29.1729 10.7374 29.1866 10.0996 29.3168 9.48141C29.4617 8.373 29.6259 7.11676 28.9441 6.16015C28.2563 5.19479 27.0288 4.96673 25.9455 4.76605C25.3372 4.70327 24.746 4.52313 24.2035 4.2352C23.7754 3.80166 23.4315 3.28937 23.1898 2.72533C22.6658 1.72756 22.072 0.596316 20.9456 0.222817C19.8619 -0.136961 18.753 0.405276 17.7745 0.884221C17.228 1.20854 16.6256 1.42244 16 1.51427C15.3744 1.42243 14.772 1.20853 14.2256 0.884221C13.2479 0.405451 12.1382 -0.136377 11.055 0.222817C9.92827 0.596492 9.33406 1.72756 8.81017 2.72533C8.5687 3.28942 8.22483 3.80173 7.79674 4.2352C7.25435 4.52315 6.66328 4.70311 6.05503 4.76547C4.97151 4.96673 3.74374 5.19479 3.05559 6.16015C2.37412 7.11687 2.53827 8.373 2.68315 9.48141C2.81337 10.0996 2.82711 10.7374 2.72363 11.3608C2.45628 11.8986 2.09222 12.3802 1.65046 12.7805C0.876888 13.6033 0 14.5361 0 15.766C0 16.9958 0.876888 17.9287 1.65046 18.7515C2.09222 19.1518 2.45628 19.6334 2.72363 20.1712C2.82711 20.7946 2.81337 21.4324 2.68315 22.0505C2.53827 23.1589 2.37412 24.4152 3.05587 25.3718C3.74374 26.3372 4.97123 26.5652 6.05446 26.7659C6.66281 26.8287 7.25396 27.0088 7.79651 27.2967C8.22458 27.7303 8.5685 28.2426 8.81017 28.8066C9.33417 29.8044 9.92827 30.9356 11.0544 31.3091C12.139 31.6689 13.2473 31.1267 14.2256 30.6477C14.772 30.3234 15.3744 30.1095 16 30.0177C16.6256 30.1095 17.228 30.3234 17.7744 30.6477C18.5194 31.0849 19.3489 31.3505 20.2049 31.426C20.4561 31.4272 20.7059 31.3878 20.945 31.3092C22.0717 30.9356 22.6659 29.8045 23.1898 28.8067C23.4313 28.2426 23.7752 27.7303 24.2033 27.2969C24.7456 27.0089 25.3367 26.829 25.945 26.7666C27.0285 26.5653 28.2563 26.3373 28.9444 25.3719C29.6259 24.4152 29.4617 23.1591 29.3168 22.0506C29.1866 21.4325 29.1729 20.7947 29.2764 20.1713C29.5437 19.6335 29.9078 19.1518 30.3495 18.7515ZM29.1122 17.5381C28.4774 18.116 27.9762 18.8308 27.6449 19.6306C27.444 20.5015 27.4344 21.4069 27.6167 22.282C27.7242 23.1031 27.835 23.9515 27.5575 24.3409C27.2736 24.7395 26.4422 24.894 25.6385 25.0428C24.7729 25.1338 23.9379 25.4198 23.1937 25.8804C22.5427 26.4567 22.025 27.1733 21.6781 27.9787C21.2887 28.7202 20.8861 29.4874 20.4151 29.6431C19.9835 29.7879 19.237 29.4212 18.5159 29.0677C17.7457 28.6138 16.8865 28.34 16.0002 28.2661C15.1139 28.34 14.2547 28.6138 13.4845 29.0677C12.7632 29.4207 12.0169 29.7845 11.5848 29.6431C11.1144 29.4874 10.7115 28.7206 10.3223 27.9787C9.97525 27.1734 9.45752 26.4567 8.80645 25.8804C8.06231 25.4198 7.2273 25.1337 6.36171 25.0428C5.55795 24.8934 4.72652 24.7392 4.44293 24.3409C4.16546 23.9515 4.27627 23.1031 4.38376 22.282C4.56605 21.4069 4.55643 20.5015 4.35557 19.6306C4.02427 18.8308 3.52308 18.116 2.88824 17.5381C2.31129 16.9252 1.71524 16.2911 1.71524 15.766C1.71524 15.2408 2.31129 14.6068 2.88778 13.9938C3.52262 13.4159 4.02381 12.7012 4.35511 11.9013C4.55597 11.0305 4.56559 10.125 4.3833 9.24991C4.27581 8.42888 4.16501 7.58046 4.44247 7.19102C4.7264 6.79248 5.55778 6.63793 6.36154 6.4891C7.22713 6.39819 8.06214 6.11211 8.80628 5.65154C9.45732 5.07528 9.97497 4.35861 10.3219 3.55325C10.7113 2.81145 11.1139 2.04454 11.5849 1.88888C12.0162 1.7435 12.763 2.11075 13.4841 2.46422C14.2543 2.91816 15.1135 3.19196 15.9998 3.26587C16.8861 3.19196 17.7453 2.91816 18.5155 2.46422C19.2371 2.11069 19.9825 1.74694 20.4152 1.88888C20.8856 2.04454 21.2885 2.81139 21.6777 3.55325C22.0247 4.35858 22.5425 5.07524 23.1936 5.65154C23.9377 6.11212 24.7727 6.3982 25.6383 6.4891C26.442 6.63851 27.2735 6.79271 27.5571 7.19102C27.8345 7.58046 27.7237 8.42882 27.6162 9.24991C27.4339 10.125 27.4436 11.0305 27.6444 11.9013C27.9757 12.7012 28.4769 13.4159 29.1118 13.9938C29.6883 14.6069 30.2843 15.2408 30.2843 15.766C30.2843 16.2911 29.6887 16.9252 29.1122 17.5381Z" fill="#FF7068"/>
</svg>