<svg xmlns="http://www.w3.org/2000/svg" width="28" height="42" viewBox="0 0 28 42" fill="none">
  <path d="M26.0909 0.824459H1.90909C1.40277 0.824459 0.917184 1.02694 0.55916 1.38736C0.201136 1.74778 0 2.23662 0 2.74633V39.9026C0 40.4123 0.201136 40.9011 0.55916 41.2616C0.917184 41.622 1.40277 41.8245 1.90909 41.8245H26.0909C26.5972 41.8245 27.0828 41.622 27.4408 41.2616C27.7989 40.9011 28 40.4123 28 39.9026V2.74633C28 2.23662 27.7989 1.74778 27.4408 1.38736C27.0828 1.02694 26.5972 0.824459 26.0909 0.824459ZM26.7273 39.9026C26.7273 40.0725 26.6602 40.2354 26.5409 40.3556C26.4215 40.4757 26.2597 40.5432 26.0909 40.5432H1.90909C1.74032 40.5432 1.57846 40.4757 1.45911 40.3556C1.33977 40.2354 1.27273 40.0725 1.27273 39.9026V2.74633C1.27273 2.57643 1.33977 2.41348 1.45911 2.29334C1.57846 2.1732 1.74032 2.10571 1.90909 2.10571H26.0909C26.2597 2.10571 26.4215 2.1732 26.5409 2.29334C26.6602 2.41348 26.7273 2.57643 26.7273 2.74633V39.9026Z" fill="#FF7068"/>
  <path d="M20.5609 18.5825C20.6801 18.7018 20.8414 18.7688 21.0095 18.7688C21.1777 18.7688 21.3389 18.7018 21.4582 18.5825C21.5767 18.4625 21.6432 18.3001 21.6432 18.1309C21.6432 17.9616 21.5767 17.7993 21.4582 17.6793L17.3918 13.765C18.0837 12.794 18.4554 11.6288 18.4545 10.4338C18.4572 9.11315 18.0094 7.83163 17.1861 6.80349C16.3627 5.77535 15.2137 5.06291 13.9312 4.78531C12.6486 4.5077 11.3103 4.68175 10.14 5.27835C8.9696 5.87496 8.03816 6.85795 7.50139 8.06297C6.96461 9.26799 6.85504 10.622 7.19098 11.8986C7.52693 13.1752 8.28803 14.297 9.34703 15.0764C10.406 15.8559 11.6987 16.2457 13.009 16.1808C14.3193 16.1158 15.5676 15.6 16.5454 14.7196L20.5609 18.5825ZM8.27272 10.4338C8.27282 9.69445 8.45451 8.96662 8.8016 8.31507C9.14869 7.66352 9.65041 7.10847 10.2621 6.69932C10.8738 6.29017 11.5765 6.03963 12.3077 5.96999C13.0388 5.90035 13.7757 6.01377 14.4528 6.30016C15.1299 6.58655 15.7261 7.03702 16.1884 7.61148C16.6507 8.18593 16.9648 8.86655 17.1026 9.59274C17.2405 10.3189 17.1978 11.0682 16.9785 11.7737C16.7592 12.4793 16.3699 13.1194 15.8454 13.6369C15.7567 13.213 15.5835 12.8117 15.3363 12.4571C15.0891 12.1026 14.7731 11.8022 14.4073 11.5741C14.7587 11.1721 14.9531 10.6554 14.9545 10.1199C14.9545 9.52521 14.7199 8.9549 14.3022 8.53441C13.8845 8.11392 13.318 7.87769 12.7273 7.87769C12.1366 7.87769 11.57 8.11392 11.1523 8.53441C10.7346 8.9549 10.5 9.52521 10.5 10.1199C10.5014 10.6554 10.6959 11.1721 11.0473 11.5741C10.6814 11.8022 10.3654 12.1026 10.1182 12.4571C9.87098 12.8117 9.69779 13.213 9.60908 13.6369C9.18589 13.2193 8.84972 12.7209 8.62025 12.1709C8.39079 11.6209 8.27263 11.0303 8.27272 10.4338ZM11.7727 10.1135C11.7727 9.92342 11.8287 9.73763 11.9336 9.5796C12.0385 9.42158 12.1876 9.29841 12.362 9.22568C12.5364 9.15295 12.7283 9.13392 12.9135 9.171C13.0986 9.20808 13.2687 9.2996 13.4022 9.43399C13.5357 9.56837 13.6266 9.7396 13.6635 9.926C13.7003 10.1124 13.6814 10.3056 13.6091 10.4812C13.5369 10.6568 13.4146 10.8069 13.2576 10.9125C13.1006 11.0181 12.9161 11.0744 12.7273 11.0744C12.4741 11.0744 12.2313 10.9732 12.0523 10.793C11.8733 10.6127 11.7727 10.3683 11.7727 10.1135ZM10.8182 14.4761V14.2775C10.8182 13.7678 11.0193 13.279 11.3773 12.9186C11.7354 12.5581 12.2209 12.3557 12.7273 12.3557C13.2336 12.3557 13.7192 12.5581 14.0772 12.9186C14.4352 13.279 14.6364 13.7678 14.6364 14.2775V14.4761C14.0414 14.7669 13.3886 14.9179 12.7273 14.9179C12.0659 14.9179 11.4131 14.7669 10.8182 14.4761Z" fill="#FF7068"/>
  <path d="M10.4046 20.197L6.39548 23.6564L5.54275 22.7915C5.48342 22.7318 5.41298 22.6844 5.33545 22.6521C5.25793 22.6198 5.17484 22.6031 5.09093 22.6031C5.00702 22.6031 4.92393 22.6198 4.84641 22.6521C4.76889 22.6844 4.69845 22.7318 4.63911 22.7915C4.57978 22.8513 4.53271 22.9222 4.5006 23.0002C4.46849 23.0782 4.45197 23.1619 4.45197 23.2464C4.45197 23.3308 4.46849 23.4145 4.5006 23.4925C4.53271 23.5706 4.57978 23.6415 4.63911 23.7012L5.91184 24.9825C5.9713 25.0418 6.04182 25.0888 6.11936 25.1207C6.19689 25.1526 6.27991 25.1687 6.36366 25.1682C6.51533 25.1683 6.66202 25.1137 6.7773 25.0145L11.2318 21.1707C11.3601 21.0603 11.4395 20.9031 11.4527 20.7337C11.4658 20.5643 11.4115 20.3966 11.3018 20.2675C11.1921 20.1383 11.036 20.0584 10.8677 20.0452C10.6994 20.0319 10.5328 20.0866 10.4046 20.197Z" fill="#FF7068"/>
  <path d="M22.9091 22.6057H14.6364C14.4676 22.6057 14.3057 22.6732 14.1864 22.7933C14.067 22.9135 14 23.0764 14 23.2463C14 23.4162 14.067 23.5792 14.1864 23.6993C14.3057 23.8195 14.4676 23.887 14.6364 23.887H22.9091C23.0779 23.887 23.2397 23.8195 23.3591 23.6993C23.4784 23.5792 23.5455 23.4162 23.5455 23.2463C23.5455 23.0764 23.4784 22.9135 23.3591 22.7933C23.2397 22.6732 23.0779 22.6057 22.9091 22.6057Z" fill="#FF7068"/>
  <path d="M10.4046 25.9626L6.39548 29.422L5.54275 28.5571C5.42292 28.4365 5.2604 28.3687 5.09093 28.3687C4.92147 28.3687 4.75894 28.4365 4.63911 28.5571C4.51929 28.6778 4.45197 28.8414 4.45197 29.012C4.45197 29.1826 4.51929 29.3462 4.63911 29.4668L5.91184 30.7481C5.9713 30.8075 6.04182 30.8544 6.11936 30.8863C6.19689 30.9182 6.27991 30.9344 6.36366 30.9339C6.51533 30.9339 6.66202 30.8794 6.7773 30.7801L11.2318 26.9364C11.2954 26.8817 11.3475 26.8149 11.3854 26.74C11.4233 26.665 11.4462 26.5832 11.4527 26.4993C11.4592 26.4154 11.4492 26.3311 11.4233 26.2511C11.3974 26.1711 11.3562 26.097 11.3018 26.0331C11.2475 25.9691 11.1812 25.9166 11.1067 25.8785C11.0322 25.8403 10.951 25.8173 10.8677 25.8108C10.7844 25.8042 10.7006 25.8143 10.6211 25.8403C10.5417 25.8664 10.4681 25.9079 10.4046 25.9626Z" fill="#FF7068"/>
  <path d="M22.9091 28.3713H14.6364C14.4676 28.3713 14.3057 28.4388 14.1864 28.559C14.067 28.6791 14 28.8421 14 29.012C14 29.1819 14.067 29.3448 14.1864 29.4649C14.3057 29.5851 14.4676 29.6526 14.6364 29.6526H22.9091C23.0779 29.6526 23.2397 29.5851 23.3591 29.4649C23.4784 29.3448 23.5455 29.1819 23.5455 29.012C23.5455 28.8421 23.4784 28.6791 23.3591 28.559C23.2397 28.4388 23.0779 28.3713 22.9091 28.3713Z" fill="#FF7068"/>
  <path d="M10.4046 31.7282L6.39548 35.1876L5.54275 34.3228C5.42292 34.2021 5.2604 34.1344 5.09093 34.1344C4.92147 34.1344 4.75894 34.2021 4.63911 34.3228C4.51929 34.4434 4.45197 34.607 4.45197 34.7776C4.45197 34.9482 4.51929 35.1118 4.63911 35.2325L5.91184 36.5137C5.9713 36.5731 6.04182 36.6201 6.11936 36.6519C6.19689 36.6838 6.27991 36.7 6.36366 36.6995C6.51533 36.6995 6.66202 36.645 6.7773 36.5457L11.2318 32.702C11.3601 32.5916 11.4395 32.4343 11.4527 32.2649C11.4658 32.0955 11.4115 31.9278 11.3018 31.7987C11.1921 31.6696 11.036 31.5896 10.8677 31.5764C10.6994 31.5632 10.5328 31.6178 10.4046 31.7282Z" fill="#FF7068"/>
  <path d="M22.9091 34.137H14.6364C14.4676 34.137 14.3057 34.2045 14.1864 34.3246C14.067 34.4447 14 34.6077 14 34.7776C14 34.9475 14.067 35.1104 14.1864 35.2306C14.3057 35.3507 14.4676 35.4182 14.6364 35.4182H22.9091C23.0779 35.4182 23.2397 35.3507 23.3591 35.2306C23.4784 35.1104 23.5455 34.9475 23.5455 34.7776C23.5455 34.6077 23.4784 34.4447 23.3591 34.3246C23.2397 34.2045 23.0779 34.137 22.9091 34.137Z" fill="#FF7068"/>
</svg>