<svg xmlns="http://www.w3.org/2000/svg" width="60" height="39" viewBox="0 0 60 39" fill="none">
<g opacity="0.5">
<path d="M0.025408 25.6921C0.0198235 25.8462 0.00195312 25.997 0.00195312 26.1534C0.00195312 26.2059 0.00865451 26.2561 0.00977141 26.3075C0.00865451 26.4103 0.00195312 26.5119 0.00195312 26.6147L0.0242917 26.599C0.261075 33.4859 5.90478 39 12.8486 39C19.9431 39 25.6952 33.2491 25.6952 26.1534C25.6952 19.6798 20.9014 14.3399 14.6725 13.452C16.2205 8.31981 20.9774 4.586 26.6177 4.586V0C12.2175 0.0011169 0.512378 11.4114 0.025408 25.6921Z" fill="#FF7068"/>
<path d="M33.3493 25.6921C33.3437 25.8462 33.3258 25.997 33.3258 26.1534C33.3258 26.2059 33.3337 26.2561 33.3337 26.3075C33.3325 26.4103 33.3258 26.5119 33.3258 26.6147L33.3493 26.599C33.5861 33.4859 39.2298 39 46.1724 39C53.2681 39 59.0191 33.2491 59.0191 26.1534C59.0191 19.6798 54.2253 14.3399 47.9964 13.452C49.5444 8.31981 54.3013 4.586 59.9405 4.586V0C45.5403 0.0011169 33.8374 11.4114 33.3493 25.6921Z" fill="#FF7068"/>
</g>
</svg>