<svg xmlns="http://www.w3.org/2000/svg" width="142" height="23" viewBox="0 0 142 23" fill="none">
<path d="M2.80805 23V12.2077H0V8.322H2.80805V5.00307C2.80805 2.39504 4.46677 0 8.28882 0C9.83631 0 10.9806 0.150765 10.9806 0.150765L10.8904 3.77938C10.8904 3.77938 9.72344 3.76784 8.44996 3.76784C7.07167 3.76784 6.85085 4.41333 6.85085 5.48469V8.322H11L10.8195 12.2077H6.85085V23H2.80805Z" fill="#8C8C8C"/>
<path fill-rule="evenodd" clip-rule="evenodd" d="M37.7589 0.069C38.9852 0.0125454 39.3762 0 42.5 0C45.6238 0 46.0148 0.0135909 47.2401 0.069C48.4654 0.124409 49.3017 0.319909 50.0335 0.603227C50.7999 0.892818 51.4951 1.3455 52.0701 1.93095C52.6555 2.50491 53.1072 3.19909 53.3957 3.96645C53.6801 4.69827 53.8745 5.53464 53.931 6.75782C53.9875 7.98623 54 8.37723 54 11.5C54 14.6238 53.9864 15.0148 53.931 16.2411C53.8756 17.4643 53.6801 18.3007 53.3957 19.0325C53.1072 19.8 52.6548 20.4953 52.0701 21.0701C51.4951 21.6555 50.7999 22.1072 50.0335 22.3957C49.3017 22.6801 48.4654 22.8745 47.2422 22.931C46.0148 22.9875 45.6238 23 42.5 23C39.3762 23 38.9852 22.9864 37.7589 22.931C36.5357 22.8756 35.6993 22.6801 34.9675 22.3957C34.2001 22.1071 33.5047 21.6548 32.9299 21.0701C32.3449 20.4958 31.8921 19.8008 31.6032 19.0335C31.3199 18.3017 31.1255 17.4654 31.069 16.2422C31.0125 15.0138 31 14.6228 31 11.5C31 8.37618 31.0136 7.98518 31.069 6.75991C31.1244 5.53464 31.3199 4.69827 31.6032 3.96645C31.8925 3.19918 32.3456 2.50419 32.931 1.92991C33.505 1.34498 34.1996 0.892236 34.9665 0.603227C35.6983 0.319909 36.5346 0.125455 37.7578 0.069H37.7589ZM47.147 2.139C45.9343 2.08359 45.5705 2.07209 42.5 2.07209C39.4295 2.07209 39.0657 2.08359 37.853 2.139C36.7312 2.19023 36.1227 2.37736 35.7171 2.53523C35.1808 2.74432 34.7971 2.99209 34.3946 3.39459C34.013 3.76578 33.7194 4.21766 33.5352 4.71709C33.3774 5.12273 33.1902 5.73118 33.139 6.85295C33.0836 8.06568 33.0721 8.4295 33.0721 11.5C33.0721 14.5705 33.0836 14.9343 33.139 16.147C33.1902 17.2688 33.3774 17.8773 33.5352 18.2829C33.7192 18.7816 34.013 19.2343 34.3946 19.6054C34.7657 19.987 35.2184 20.2808 35.7171 20.4648C36.1227 20.6226 36.7312 20.8098 37.853 20.861C39.0657 20.9164 39.4285 20.9279 42.5 20.9279C45.5715 20.9279 45.9343 20.9164 47.147 20.861C48.2688 20.8098 48.8773 20.6226 49.2829 20.4648C49.8192 20.2557 50.2029 20.0079 50.6054 19.6054C50.987 19.2343 51.2808 18.7816 51.4648 18.2829C51.6226 17.8773 51.8098 17.2688 51.861 16.147C51.9164 14.9343 51.9279 14.5705 51.9279 11.5C51.9279 8.4295 51.9164 8.06568 51.861 6.85295C51.8098 5.73118 51.6226 5.12273 51.4648 4.71709C51.2557 4.18077 51.0079 3.79709 50.6054 3.39459C50.2342 3.01307 49.7823 2.71945 49.2829 2.53523C48.8773 2.37736 48.2688 2.19023 47.147 2.139ZM41.0311 15.0451C41.8515 15.3866 42.7649 15.4327 43.6154 15.1755C44.466 14.9184 45.2008 14.3739 45.6945 13.6351C46.1882 12.8963 46.4101 12.009 46.3222 11.1248C46.2344 10.2406 45.8423 9.41429 45.213 8.78704C44.8117 8.38609 44.3266 8.07908 43.7925 7.88811C43.2584 7.69714 42.6886 7.62697 42.1242 7.68264C41.5597 7.73832 41.0146 7.91846 40.5281 8.21009C40.0416 8.50172 39.6258 8.8976 39.3106 9.36921C38.9955 9.84082 38.7888 10.3764 38.7055 10.9375C38.6222 11.4986 38.6644 12.0711 38.8289 12.6139C38.9935 13.1568 39.2763 13.6564 39.6571 14.0768C40.0379 14.4971 40.5072 14.8279 41.0311 15.0451ZM38.3203 7.32027C38.8692 6.77138 39.5208 6.33598 40.2379 6.03892C40.9551 5.74187 41.7238 5.58897 42.5 5.58897C43.2762 5.58897 44.0449 5.74187 44.7621 6.03892C45.4792 6.33598 46.1308 6.77138 46.6797 7.32027C47.2286 7.86916 47.664 8.52079 47.9611 9.23795C48.2581 9.95511 48.411 10.7238 48.411 11.5C48.411 12.2762 48.2581 13.0449 47.9611 13.7621C47.664 14.4792 47.2286 15.1308 46.6797 15.6797C45.5712 16.7883 44.0677 17.411 42.5 17.411C40.9323 17.411 39.4288 16.7883 38.3203 15.6797C37.2117 14.5712 36.589 13.0677 36.589 11.5C36.589 9.9323 37.2117 8.4288 38.3203 7.32027ZM49.722 6.46927C49.858 6.34096 49.9669 6.18667 50.0422 6.01552C50.1175 5.84437 50.1578 5.65985 50.1605 5.47288C50.1632 5.28591 50.1284 5.1003 50.0581 4.92703C49.9878 4.75376 49.8835 4.59635 49.7512 4.46413C49.619 4.33191 49.4616 4.22756 49.2883 4.15727C49.1151 4.08697 48.9294 4.05216 48.7425 4.05488C48.5555 4.05761 48.371 4.09782 48.1998 4.17314C48.0287 4.24845 47.8744 4.35735 47.7461 4.49336C47.4966 4.75789 47.3599 5.10926 47.3652 5.47288C47.3705 5.8365 47.5173 6.18374 47.7745 6.44088C48.0316 6.69803 48.3789 6.84483 48.7425 6.85013C49.1061 6.85543 49.4575 6.71881 49.722 6.46927Z" fill="#8C8C8C"/>
<path d="M95.1514 0H75.8486C74.828 0 74 0.828 74 1.84863V21.1514C74 22.172 74.828 23 75.8486 23H95.1514C96.172 23 97 22.172 97 21.1514V1.84863C97 0.828 96.172 0 95.1514 0ZM95.1514 21.16C82.2771 21.1571 75.84 21.1543 75.84 21.1514C75.8429 8.27713 75.8458 1.84 75.8486 1.84C88.7229 1.84288 95.16 1.84575 95.16 1.84863C95.1571 14.7229 95.1543 21.16 95.1514 21.16ZM77.4098 8.62212H80.8224V19.5989H77.4098V8.62212ZM79.1175 7.12138C80.2071 7.12138 81.0955 6.23588 81.0955 5.14337C81.0955 4.88362 81.0443 4.62641 80.9449 4.38643C80.8455 4.14645 80.6998 3.92839 80.5162 3.74472C80.3325 3.56104 80.1144 3.41534 79.8744 3.31594C79.6345 3.21654 79.3773 3.16538 79.1175 3.16538C78.8577 3.16538 78.6005 3.21654 78.3606 3.31594C78.1206 3.41534 77.9025 3.56104 77.7188 3.74472C77.5352 3.92839 77.3895 4.14645 77.2901 4.38643C77.1907 4.62641 77.1395 4.88362 77.1395 5.14337C77.1366 6.23588 78.0221 7.12138 79.1175 7.12138ZM86.3711 14.168C86.3711 12.7362 86.6442 11.3505 88.4181 11.3505C90.1661 11.3505 90.192 12.9864 90.192 14.26V19.5989H93.6017V13.5786C93.6017 10.6231 92.9635 8.349 89.5106 8.349C87.8518 8.349 86.7391 9.26038 86.282 10.1229H86.236V8.62212H82.9614V19.5989H86.3711V14.168Z" fill="#8C8C8C"/>
<path d="M141.457 5.81178C141.309 5.26731 141.019 4.77078 140.616 4.37189C140.213 3.973 139.71 3.68573 139.159 3.53885C137.131 3 129 3 129 3C129 3 120.869 3 118.841 3.53599C118.29 3.68239 117.787 3.96949 117.384 4.36846C116.98 4.76742 116.69 5.26421 116.543 5.80892C116 7.81529 116 12 116 12C116 12 116 16.1847 116.543 18.1882C116.842 19.2946 117.724 20.1659 118.841 20.4611C120.869 21 129 21 129 21C129 21 137.131 21 139.159 20.4611C140.279 20.1659 141.158 19.2946 141.457 18.1882C142 16.1847 142 12 142 12C142 12 142 7.81529 141.457 5.81178ZM126.417 15.8408V8.15924L133.15 11.9713L126.417 15.8408Z" fill="#8C8C8C"/>
</svg>