<svg xmlns="http://www.w3.org/2000/svg" width="178" height="27" viewBox="0 0 178 27" fill="none">
<path d="M25.6074 8.4035L18.9727 7.44129C18.8444 7.42294 18.7436 7.34967 18.6886 7.23965L15.7195 1.21894C15.3529 0.467487 14.5923 0.00012207 13.7492 0.00012207C12.9061 0.00012207 12.1455 0.467487 11.7789 1.21894L8.8098 7.23965C8.75481 7.34968 8.65403 7.42294 8.52571 7.44129L1.89098 8.4035C1.05708 8.53181 0.369781 9.09997 0.113162 9.90641C-0.152576 10.7037 0.0673507 11.5743 0.672157 12.1608L5.47408 16.8436C5.56576 16.926 5.60239 17.0452 5.5841 17.1643L4.44772 23.7807C4.30111 24.6146 4.64018 25.4394 5.31831 25.9343C6.00561 26.4291 6.89455 26.4932 7.63683 26.0992L13.5843 22.9835C13.6851 22.9193 13.8134 22.9193 13.9233 22.9835L19.8616 26.0992C20.1824 26.2733 20.5397 26.3558 20.888 26.3558C21.337 26.3558 21.7952 26.2183 22.1801 25.9343C22.8582 25.4394 23.1973 24.6146 23.0507 23.7807L21.9143 17.1643C21.896 17.0452 21.9327 16.926 22.0243 16.8436L26.8263 12.1608C27.4311 11.5743 27.651 10.7037 27.3853 9.9064C27.1286 9.09998 26.4413 8.53181 25.6074 8.4035Z" fill="#FF7068"/>
<path d="M62.9838 8.40338L56.3491 7.44117C56.2208 7.42282 56.12 7.34955 56.065 7.23953L53.0959 1.21882C52.7293 0.467365 51.9686 0 51.1256 0C50.2825 0 49.5219 0.467365 49.1553 1.21882L46.1862 7.23953C46.1312 7.34956 46.0304 7.42282 45.9021 7.44117L39.2673 8.40338C38.4334 8.53168 37.7461 9.09985 37.4895 9.90629C37.2238 10.7036 37.4437 11.5741 38.0485 12.1607L42.8504 16.8435C42.9421 16.9259 42.9787 17.045 42.9605 17.1642L41.8241 23.7806C41.6775 24.6145 42.0165 25.4393 42.6947 25.9341C43.382 26.429 44.2709 26.4931 45.0132 26.0991L50.9606 22.9833C51.0614 22.9192 51.1897 22.9192 51.2997 22.9833L57.238 26.0991C57.5587 26.2732 57.9161 26.3557 58.2643 26.3557C58.7134 26.3557 59.1716 26.2182 59.5565 25.9341C60.2346 25.4393 60.5737 24.6145 60.4271 23.7806L59.2907 17.1642C59.2724 17.045 59.309 16.9259 59.4007 16.8434L64.2026 12.1606C64.8074 11.5741 65.0274 10.7035 64.7616 9.90628C64.505 9.09985 63.8177 8.53168 62.9838 8.40338Z" fill="#FF7068"/>
<path d="M100.36 8.40338L93.7254 7.44117C93.5971 7.42282 93.4963 7.34955 93.4414 7.23953L90.4722 1.21882C90.1057 0.467365 89.345 0 88.5019 0C87.6589 0 86.8982 0.467365 86.5317 1.21882L83.5625 7.23953C83.5076 7.34956 83.4068 7.42282 83.2785 7.44117L76.6437 8.40338C75.8098 8.53168 75.1225 9.09985 74.8659 9.90629C74.6002 10.7036 74.8201 11.5741 75.4249 12.1607L80.2268 16.8435C80.3185 16.9259 80.3551 17.045 80.3368 17.1642L79.2005 23.7806C79.0539 24.6145 79.3929 25.4393 80.071 25.9341C80.7584 26.429 81.6473 26.4931 82.3896 26.0991L88.337 22.9833C88.4378 22.9192 88.5661 22.9192 88.6761 22.9833L94.6143 26.0991C94.9351 26.2732 95.2925 26.3557 95.6407 26.3557C96.0898 26.3557 96.548 26.2182 96.9329 25.9341C97.611 25.4393 97.9501 24.6145 97.8034 23.7806L96.6671 17.1642C96.6488 17.045 96.6854 16.9259 96.7771 16.8434L101.579 12.1606C102.184 11.5741 102.404 10.7035 102.138 9.90628C101.881 9.09985 101.194 8.53168 100.36 8.40338Z" fill="#FF7068"/>
<path d="M137.737 8.40338L131.102 7.44117C130.974 7.42282 130.873 7.34955 130.818 7.23953L127.849 1.21882C127.482 0.467365 126.721 0 125.878 0C125.035 0 124.275 0.467365 123.908 1.21882L120.939 7.23953C120.884 7.34956 120.783 7.42282 120.655 7.44117L114.02 8.40338C113.186 8.53168 112.499 9.09985 112.242 9.90629C111.977 10.7036 112.196 11.5741 112.801 12.1607L117.603 16.8435C117.695 16.9259 117.731 17.045 117.713 17.1642L116.577 23.7806C116.43 24.6145 116.769 25.4393 117.447 25.9341C118.135 26.429 119.024 26.4931 119.766 26.0991L125.713 22.9833C125.814 22.9192 125.942 22.9192 126.052 22.9833L131.991 26.0991C132.311 26.2732 132.669 26.3557 133.017 26.3557C133.466 26.3557 133.924 26.2182 134.309 25.9341C134.987 25.4393 135.326 24.6145 135.18 23.7806L134.043 17.1642C134.025 17.045 134.062 16.9259 134.153 16.8434L138.955 12.1606C139.56 11.5741 139.78 10.7035 139.514 9.90628C139.258 9.09985 138.57 8.53168 137.737 8.40338Z" fill="#FF7068"/>
<path d="M175.113 8.40338L168.478 7.44117C168.35 7.42282 168.249 7.34955 168.194 7.23953L165.225 1.21882C164.858 0.467365 164.098 0 163.255 0C162.412 0 161.651 0.467365 161.284 1.21882L158.315 7.23953C158.26 7.34956 158.16 7.42282 158.031 7.44117L151.396 8.40338C150.563 8.53168 149.875 9.09985 149.619 9.90629C149.353 10.7036 149.573 11.5741 150.178 12.1607L154.98 16.8435C155.071 16.9259 155.108 17.045 155.09 17.1642L153.953 23.7806C153.807 24.6145 154.146 25.4393 154.824 25.9341C155.511 26.429 156.4 26.4931 157.142 26.0991L163.09 22.9833C163.191 22.9192 163.319 22.9192 163.429 22.9833L169.367 26.0991C169.688 26.2732 170.045 26.3557 170.393 26.3557C170.843 26.3557 171.301 26.2182 171.686 25.9341C172.364 25.4393 172.703 24.6145 172.556 23.7806L171.42 17.1642C171.402 17.045 171.438 16.9259 171.53 16.8434L176.332 12.1606C176.937 11.5741 177.156 10.7035 176.891 9.90628C176.634 9.09985 175.947 8.53168 175.113 8.40338Z" fill="#FF7068"/>
</svg>