<svg xmlns="http://www.w3.org/2000/svg" width="32" height="33" viewBox="0 0 32 33" fill="none">
  <path d="M31.1111 0.510418H0.888889C0.653141 0.510418 0.427049 0.604069 0.26035 0.770768C0.0936505 0.937468 0 1.16356 0 1.39931L0 20.066C0 20.3018 0.0936505 20.5279 0.26035 20.6946C0.427049 20.8613 0.653141 20.9549 0.888889 20.9549C1.12464 20.9549 1.35073 20.8613 1.51743 20.6946C1.68413 20.5279 1.77778 20.3018 1.77778 20.066V2.2882H30.2222V23.6216H21.3778C21.142 23.6216 20.9159 23.7153 20.7492 23.882C20.5825 24.0486 20.4889 24.2747 20.4889 24.5105C20.4889 24.7462 20.5825 24.9723 20.7492 25.139C20.9159 25.3057 21.142 25.3994 21.3778 25.3994H31.1111C31.3469 25.3994 31.573 25.3057 31.7397 25.139C31.9064 24.9723 32 24.7462 32 24.5105V1.39931C32 1.16356 31.9064 0.937468 31.7397 0.770768C31.573 0.604069 31.3469 0.510418 31.1111 0.510418V0.510418Z" fill="#FF7068"/>
  <path d="M10.2222 17.3994C12.6768 17.3994 14.6667 15.4095 14.6667 12.9549C14.6667 10.5003 12.6768 8.51044 10.2222 8.51044C7.76762 8.51044 5.77777 10.5003 5.77777 12.9549C5.77777 15.4095 7.76762 17.3994 10.2222 17.3994Z" fill="#FF7068"/>
  <path d="M22.48 16.457L16.4178 22.5193C16.7333 23.2923 16.8934 24.1199 16.8889 24.9548V31.6215C16.8889 31.8573 16.7952 32.0834 16.6285 32.2501C16.4618 32.4168 16.2358 32.5104 16 32.5104H4.44445C3.95556 32.5104 3.55556 32.1193 3.55556 31.0349V25.2393C3.55147 23.4492 4.239 21.7267 5.47461 20.4315C6.71022 19.1363 8.39839 18.3684 10.1867 18.2882C11.03 18.2773 11.8669 18.4345 12.6489 18.7504L18.6667 12.7504C18.904 12.4754 19.195 12.2518 19.5218 12.0933C19.8486 11.9348 20.2043 11.8447 20.5672 11.8286C20.9301 11.8125 21.2924 11.8707 21.6319 11.9996C21.9715 12.1285 22.2812 12.3255 22.5419 12.5783C22.8027 12.8312 23.009 13.1347 23.1483 13.4701C23.2876 13.8056 23.3568 14.1659 23.3519 14.5291C23.3469 14.8923 23.2678 15.2506 23.1194 15.5822C22.971 15.9137 22.7565 16.2114 22.4889 16.457H22.48Z" fill="#FF7068"/>
</svg>