<svg xmlns="http://www.w3.org/2000/svg" width="51" height="50" viewBox="0 0 51 50" fill="none">
<path d="M36.468 39.7007C33.9888 37.8707 27.0087 33.6725 18.8155 33.6211V33.6164C18.79 33.6164 18.7664 33.6191 18.7415 33.6191C18.7166 33.6191 18.6924 33.6164 18.6676 33.6164V33.6211C10.4737 33.6725 3.49361 37.87 1.01626 39.7007C0.676469 39.9506 0.433579 40.1593 0.188776 40.7306C-0.00948887 41.1972 7.40198e-05 42.1487 7.40198e-05 42.1487V49.5208H37.4842V42.1487C37.4842 42.1487 37.4938 41.1972 37.2942 40.7306C37.0507 40.1593 36.8059 39.9506 36.468 39.7007ZM10.1874 18.3462C10.1874 18.3462 11.8985 23.1792 13.0384 24.991C13.7441 26.1147 14.7494 28.0946 18.7409 28.0946C22.7323 28.0946 23.7351 26.1147 24.4434 24.991C25.5839 23.1792 27.2943 18.3462 27.2943 18.3462C27.9242 18.3462 28.4348 17.8053 28.4348 17.1388V14.7233C28.4348 14.0554 27.9242 13.5152 27.2943 13.5152V11.7027C27.2943 7.47474 25.0363 3.84981 18.7409 3.84981C12.4678 3.84981 10.1874 7.47542 10.1874 11.7027V13.5152C9.61687 13.5152 9.0463 14.0554 9.0463 14.7233V17.1394C9.0463 17.8053 9.55758 18.3462 10.1874 18.3462ZM42.7787 8.70781V0H39.6702V8.70849H31.4496V12.0005H39.6709V20.709H42.7794V12.0005H51V8.70849L42.7787 8.70781Z" fill="#FF7068"/>
</svg>