<svg xmlns="http://www.w3.org/2000/svg" width="41" height="45" viewBox="0 0 41 45" fill="none">
  <path d="M20.4471 20.3989C25.7784 20.3989 30.1002 15.8325 30.1002 10.1995C30.1002 4.56646 25.7784 0 20.4471 0C15.1158 0 10.7939 4.56646 10.7939 10.1995C10.7939 15.8325 15.1158 20.3989 20.4471 20.3989Z" fill="#FF7068"/>
  <path d="M11.3382 26.2035C11.1188 26.63 11.1363 27.1492 11.3821 27.5665C11.7682 28.2248 12.5141 29.2818 13.9796 30.8025C15.6031 32.4993 17.2178 33.8437 17.2354 33.8623L17.3144 33.9272L17.3933 34.0014C17.4021 34.0106 17.4021 34.0106 17.4109 34.0199L17.5864 33.8345C18.6044 32.7589 19.8505 32.1933 21.1844 32.1933C22.5183 32.1933 23.4748 32.7589 23.7381 32.9351L23.7644 32.9536L23.7908 32.9722L27.5555 35.624C29.1175 36.7089 29.9425 38.3871 29.8108 40.2508C29.7669 40.835 29.6441 41.3449 29.5037 41.7437H40.8944C39.6219 30.3389 31.5396 24.1636 20.456 24.1636H20.4473H20.4385C17.3846 24.1636 14.5588 24.6365 12.0402 25.5637C11.7331 25.6657 11.4874 25.9067 11.3382 26.2035Z" fill="#FF7068"/>
  <path d="M3.44005 32.073C1.62349 34.6878 0.430007 37.9145 0 41.7439H12.8563C8.83708 38.4801 5.50233 34.6692 3.44005 32.073Z" fill="#FF7068"/>
  <path d="M3.8262 16.8666L1.3076 19.5277C1.3076 19.5277 -0.68446 21.855 2.87843 27.6131C2.87843 27.6131 10.5308 38.8046 19.7627 43.5706C19.7627 43.5706 24.6946 45.5641 26.8972 41.3545C26.8972 41.3545 28.1521 39.1384 26.0548 37.7012L22.2813 35.0401C22.2813 35.0401 20.6051 33.9274 19.0343 35.5964L18.2972 36.3753C18.2972 36.3753 17.4547 37.7012 15.5679 35.819C15.5679 35.819 7.35399 28.9854 8.53869 26.0646L9.38115 24.4049C9.38115 24.4049 10.4342 22.9677 8.644 20.1953L6.65194 17.3116C6.65194 17.3116 5.50234 15.4201 3.8262 16.8666Z" fill="#FF7068"/>
</svg>